<?xml version="1.0" encoding="utf-8"?>
<!-- Generator: Adobe Illustrator 22.0.1, SVG Export Plug-In . SVG Version: 6.00 Build 0)  -->
<svg version="1.1" id="Layer_1" xmlns="http://www.w3.org/2000/svg" xmlns:xlink="http://www.w3.org/1999/xlink" x="0px" y="0px"
	 viewBox="0 0 1080 1080" style="enable-background:new 0 0 1080 1080;" xml:space="preserve">
<style type="text/css">
	.st0{fill:#EA4626;}
	.st1{fill:#0060FF;}
	.st2{fill:#231F20;}
	.st3{fill:#FFFFFF;}
</style>
<rect x="143.9" y="475.2" class="st0" width="792.3" height="129.5"/>
<rect x="143.9" y="660.1" class="st1" width="792.3" height="129.5"/>
<g>
	<path class="st2" d="M410.2,418.8h-14.5l-4.4-11.9h-22.6l-4.4,11.9h-14.5l24-59.4h12.5L410.2,418.8z M380,377.8h-0.1l-6.6,17.3
		h13.4L380,377.8z"/>
	<path class="st2" d="M459.2,402.9l5.8,11.5c0,0-6.6,5.5-19.5,5.5c-16.8,0-32.2-13.7-32.2-30.7c0-17.1,15.3-30.9,32.2-30.9
		c12.9,0,19.5,5.5,19.5,5.5l-5.8,11.5c0,0-4.8-3.7-11.7-3.7c-13.6,0-19.6,9.5-19.6,17.4c0,8,6,17.5,19.6,17.5
		C454.4,406.6,459.2,402.9,459.2,402.9z"/>
	<path class="st2" d="M472.7,359.4h41.8v11.9h-14.1v47.5h-13.5v-47.5h-14.1L472.7,359.4L472.7,359.4z"/>
	<path class="st2" d="M538.2,418.8h-13.5v-59.4h13.5V418.8z"/>
	<path class="st2" d="M580.2,358.3c16.5,0,29.9,13.4,29.9,30.7s-12.8,30.8-29.9,30.8c-17.6,0-30-13.5-30-30.8
		S563.8,358.3,580.2,358.3z M580.2,406.8c10.8,0,15.3-8.9,15.3-17.7c0-8.9-4.8-17.7-15.3-17.7c-10.4,0-15.3,8.9-15.3,17.7
		S569.1,406.8,580.2,406.8z"/>
	<path class="st2" d="M635.6,418.8h-13.5v-59.4h13.5l23.6,36.9h0.1v-36.9h13.5v59.4h-13.5l-23.6-36.9h-0.1V418.8z"/>
	<path class="st2" d="M726.6,363.9l-5.5,10.8c0,0-5.9-4.1-12-4.1c-4.6,0-7.1,2.1-7.1,5.3c0,3.3,5.6,5.7,12.4,8.6
		c6.6,2.8,13.9,8.4,13.9,16.2c0,14.2-10.8,19.2-22.4,19.2c-13.9,0-22.3-7.8-22.3-7.8l6.8-11.4c0,0,7.9,6.7,14.5,6.7
		c3,0,8.6-0.3,8.6-5.8c0-4.3-6.3-6.3-13.4-9.8c-7.1-3.5-11.3-9.1-11.3-15.3c0-11.1,9.8-18.1,19.4-18.1
		C718.9,358.3,726.6,363.9,726.6,363.9z"/>
</g>
<g>
	<path class="st3" d="M266,557.8h20.4v11.9h-34v-59.4H266V557.8z"/>
	<path class="st3" d="M331.4,522.2H311V534h19.6v11.9H311v12h20.4v11.9h-34v-59.4h34V522.2z"/>
	<path class="st3" d="M379.3,522.2h-20.8V534h19.2v11.9h-19.2v23.8H345v-59.4h34.3V522.2z"/>
	<path class="st3" d="M388.4,510.3h41.8v11.9h-14.1v47.5h-13.5v-47.5h-14.1L388.4,510.3L388.4,510.3z"/>
	<path class="st3" d="M482.7,557.8h20.4v11.9h-34v-59.4h13.5v47.5H482.7z"/>
	<path class="st3" d="M571.7,569.7h-14.5l-4.4-11.9h-22.6l-4.4,11.9h-14.5l24-59.4h12.5L571.7,569.7z M541.5,528.7L541.5,528.7
		l-6.7,17.3h13.4L541.5,528.7z"/>
	<path class="st3" d="M571.2,510.3H613v11.9h-14.1v47.5h-13.5v-47.5h-14.1v-11.9H571.2z"/>
	<path class="st3" d="M657.1,522.2h-20.5V534h19.6v11.9h-19.6v12h20.5v11.9h-34v-59.4h34V522.2z"/>
	<path class="st3" d="M692,510.3c11,0,19.4,6,19.4,17.6c0,8.9-4.9,14.9-12.2,17.2l20.5,24.6h-17.2l-18.1-23.5v23.5h-13.5v-59.4
		L692,510.3L692,510.3z M685.8,536.7c5.1,0,11.2-0.4,11.2-7.8s-6.1-7.8-11.2-7.8h-1.6v15.6H685.8z"/>
	<path class="st3" d="M786.5,569.7H772l-4.4-11.9H745l-4.4,11.9H726l24-59.4h12.5L786.5,569.7z M756.3,528.7L756.3,528.7l-6.7,17.3
		H763L756.3,528.7z"/>
	<path class="st3" d="M809,557.8h20.5v11.9h-34v-59.4H809V557.8z"/>
</g>
<g>
	<path class="st3" d="M235.2,742.7h20.4v11.9h-34v-59.4h13.5v47.5H235.2z"/>
	<path class="st3" d="M300.5,707.1h-20.4v11.8h19.6v11.9h-19.6v12h20.4v11.9h-34v-59.4h34V707.1z"/>
	<path class="st3" d="M348.5,707.1h-20.8v11.8h19.2v11.9h-19.2v23.8h-13.5v-59.4h34.3V707.1z"/>
	<path class="st3" d="M357.6,695.2h41.8v11.9h-14.1v47.5h-13.5v-47.5h-14.1L357.6,695.2L357.6,695.2z"/>
	<path class="st3" d="M459.5,695.2c11,0,19.4,6,19.4,17.6c0,8.9-4.9,14.9-12.2,17.2l20.4,24.6H470l-18.1-23.5v23.5h-13.5v-59.4
		L459.5,695.2L459.5,695.2z M453.4,721.5c5.1,0,11.2-0.4,11.2-7.8c0-7.4-6.1-7.8-11.2-7.8h-1.6v15.6H453.4z"/>
	<path class="st3" d="M520.7,694.1c16.5,0,29.9,13.4,29.9,30.7s-12.8,30.8-29.9,30.8c-17.6,0-30-13.5-30-30.8
		S504.3,694.1,520.7,694.1z M520.7,742.6c10.8,0,15.3-8.9,15.3-17.7c0-8.9-4.8-17.7-15.3-17.7c-10.4,0-15.3,8.9-15.3,17.7
		C505.3,733.7,509.6,742.6,520.7,742.6z"/>
	<path class="st3" d="M557,695.2h41.8v11.9h-14.1v47.5h-13.5v-47.5H557V695.2z"/>
	<path class="st3" d="M658.7,754.6h-14.5l-4.4-11.9h-22.6l-4.4,11.9h-14.5l24-59.4h12.5L658.7,754.6z M628.5,713.5L628.5,713.5
		l-6.7,17.3h13.4L628.5,713.5z"/>
	<path class="st3" d="M658.2,695.2H700v11.9h-14.1v47.5h-13.5v-47.5h-14.1v-11.9H658.2z"/>
	<path class="st3" d="M723.6,754.6h-13.5v-59.4h13.5V754.6z"/>
	<path class="st3" d="M765.6,694.1c16.5,0,29.9,13.4,29.9,30.7s-12.8,30.8-29.9,30.8c-17.6,0-30-13.5-30-30.8
		S749.3,694.1,765.6,694.1z M765.6,742.6c10.8,0,15.3-8.9,15.3-17.7c0-8.9-4.8-17.7-15.3-17.7c-10.4,0-15.3,8.9-15.3,17.7
		C750.3,733.7,754.6,742.6,765.6,742.6z"/>
	<path class="st3" d="M821.1,754.6h-13.5v-59.4h13.5l23.6,36.9h0.1v-36.9h13.5v59.4h-13.5l-23.6-36.9h-0.1V754.6z"/>
</g>
</svg>
