<?xml version="1.0" encoding="utf-8"?>
<!-- Generator: Adobe Illustrator 22.0.1, SVG Export Plug-In . SVG Version: 6.00 Build 0)  -->
<svg version="1.1" id="Layer_1" xmlns="http://www.w3.org/2000/svg" xmlns:xlink="http://www.w3.org/1999/xlink" x="0px" y="0px"
	 viewBox="0 0 1080 1080" style="enable-background:new 0 0 1080 1080;" xml:space="preserve">
<style type="text/css">
	.st0{fill:#EA4626;}
	.st1{fill:#0060FF;}
	.st2{fill:#231F20;}
	.st3{fill:#FFFFFF;}
</style>
<rect x="290.1" y="475.2" class="st0" width="499.9" height="129.5"/>
<rect x="290.1" y="660.1" class="st1" width="499.9" height="129.5"/>
<g>
	<path class="st2" d="M410.2,418.8h-14.5l-4.4-11.9h-22.6l-4.4,11.9h-14.5l24-59.4h12.5L410.2,418.8z M380,377.8h-0.1l-6.6,17.3
		h13.4L380,377.8z"/>
	<path class="st2" d="M459.2,402.9l5.8,11.5c0,0-6.6,5.5-19.5,5.5c-16.8,0-32.2-13.7-32.2-30.7c0-17.1,15.3-30.9,32.2-30.9
		c12.9,0,19.5,5.5,19.5,5.5l-5.8,11.5c0,0-4.8-3.7-11.7-3.7c-13.6,0-19.6,9.5-19.6,17.4c0,8,6,17.5,19.6,17.5
		C454.4,406.6,459.2,402.9,459.2,402.9z"/>
	<path class="st2" d="M472.7,359.4h41.8v11.9h-14.1v47.5h-13.5v-47.5h-14.1L472.7,359.4L472.7,359.4z"/>
	<path class="st2" d="M538.2,418.8h-13.5v-59.4h13.5V418.8z"/>
	<path class="st2" d="M580.2,358.3c16.5,0,29.9,13.4,29.9,30.7s-12.8,30.8-29.9,30.8c-17.6,0-30-13.5-30-30.8
		S563.8,358.3,580.2,358.3z M580.2,406.8c10.8,0,15.3-8.9,15.3-17.7c0-8.9-4.8-17.7-15.3-17.7c-10.4,0-15.3,8.9-15.3,17.7
		S569.1,406.8,580.2,406.8z"/>
	<path class="st2" d="M635.6,418.8h-13.5v-59.4h13.5l23.6,36.9h0.1v-36.9h13.5v59.4h-13.5l-23.6-36.9h-0.1V418.8z"/>
	<path class="st2" d="M726.6,363.9l-5.5,10.8c0,0-5.9-4.1-12-4.1c-4.6,0-7.1,2.1-7.1,5.3c0,3.3,5.6,5.7,12.4,8.6
		c6.6,2.8,13.9,8.4,13.9,16.2c0,14.2-10.8,19.2-22.4,19.2c-13.9,0-22.3-7.8-22.3-7.8l6.8-11.4c0,0,7.9,6.7,14.5,6.7
		c3,0,8.6-0.3,8.6-5.8c0-4.3-6.3-6.3-13.4-9.8c-7.1-3.5-11.3-9.1-11.3-15.3c0-11.1,9.8-18.1,19.4-18.1
		C718.9,358.3,726.6,363.9,726.6,363.9z"/>
</g>
<g>
	<path class="st3" d="M373.4,557.8h20.4v11.9h-34v-59.4h13.5v47.5H373.4z"/>
	<path class="st3" d="M462.4,569.7h-14.5l-4.4-11.9h-22.6l-4.4,11.9H402l24-59.4h12.5L462.4,569.7z M432.2,528.7L432.2,528.7
		l-6.7,17.3h13.4L432.2,528.7z"/>
	<path class="st3" d="M461.9,510.3h41.8v11.9h-14.1v47.5h-13.5v-47.5H462v-11.9H461.9z"/>
	<path class="st3" d="M547.8,522.2h-20.5V534h19.6v11.9h-19.6v12h20.5v11.9h-34v-59.4h34V522.2z"/>
	<path class="st3" d="M582.7,510.3c11,0,19.4,6,19.4,17.6c0,8.9-4.9,14.9-12.2,17.2l20.5,24.6h-17.2l-18.1-23.5v23.5h-13.5v-59.4
		L582.7,510.3L582.7,510.3z M576.5,536.7c5.1,0,11.2-0.4,11.2-7.8s-6.1-7.8-11.2-7.8h-1.6v15.6H576.5z"/>
	<path class="st3" d="M677.2,569.7h-14.5l-4.4-11.9h-22.6l-4.4,11.9h-14.6l24-59.4h12.5L677.2,569.7z M647,528.7L647,528.7
		l-6.7,17.3h13.4L647,528.7z"/>
	<path class="st3" d="M699.7,557.8h20.5v11.9h-34v-59.4h13.5V557.8z"/>
</g>
<g>
	<path class="st3" d="M351.2,695.2c11,0,19.4,6,19.4,17.6c0,8.9-4.9,14.9-12.2,17.2l20.4,24.6h-17.1l-18.1-23.5v23.5h-13.5v-59.4
		L351.2,695.2L351.2,695.2z M345.1,721.5c5.1,0,11.2-0.4,11.2-7.8c0-7.4-6.1-7.8-11.2-7.8h-1.6v15.6H345.1z"/>
	<path class="st3" d="M412.4,694.1c16.5,0,29.9,13.4,29.9,30.7s-12.8,30.8-29.9,30.8c-17.6,0-30-13.5-30-30.8S396,694.1,412.4,694.1
		z M412.4,742.6c10.8,0,15.3-8.9,15.3-17.7c0-8.9-4.8-17.7-15.3-17.7c-10.4,0-15.3,8.9-15.3,17.7C397,733.7,401.3,742.6,412.4,742.6
		z"/>
	<path class="st3" d="M448.7,695.2h41.8v11.9h-14.1v47.5h-13.5v-47.5h-14.2V695.2z"/>
	<path class="st3" d="M550.4,754.6h-14.5l-4.4-11.9h-22.6l-4.4,11.9H490l24-59.4h12.5L550.4,754.6z M520.2,713.5L520.2,713.5
		l-6.7,17.3h13.4L520.2,713.5z"/>
	<path class="st3" d="M549.9,695.2h41.8v11.9h-14.1v47.5h-13.5v-47.5H550v-11.9H549.9z"/>
	<path class="st3" d="M615.3,754.6h-13.5v-59.4h13.5V754.6z"/>
	<path class="st3" d="M657.3,694.1c16.5,0,29.9,13.4,29.9,30.7s-12.8,30.8-29.9,30.8c-17.6,0-30-13.5-30-30.8S641,694.1,657.3,694.1
		z M657.3,742.6c10.8,0,15.3-8.9,15.3-17.7c0-8.9-4.8-17.7-15.3-17.7c-10.4,0-15.3,8.9-15.3,17.7C642,733.7,646.3,742.6,657.3,742.6
		z"/>
	<path class="st3" d="M712.8,754.6h-13.5v-59.4h13.5l23.6,36.9h0.1v-36.9h13.5v59.4h-13.5l-23.6-36.9h-0.1V754.6z"/>
</g>
</svg>
